HIERARCHY
ROOT COM
{
  OFFSET 0.000000 0.000000 0.000000
  CHANNELS 6 Xposition Yposition Zposition Zrotation Xrotation Yrotation
  JOINT Spine
  {
    OFFSET 0.000000 10.031300 -3.647750
    CHANNELS 3 Zrotation Xrotation Yrotation
    JOINT Spine1
    {
      OFFSET 0.000000 14.268000 -0.012359
      CHANNELS 3 Zrotation Xrotation Yrotation
      JOINT Spine2
      {
        OFFSET 0.000000 15.553400 -0.011802
        CHANNELS 3 Zrotation Xrotation Yrotation
        JOINT Neck
        {
          OFFSET 0.000000 15.343700 -0.005077
          CHANNELS 3 Zrotation Xrotation Yrotation
          JOINT Head
          {
            OFFSET 0.000000 6.594300 0.000000
            CHANNELS 3 Zrotation Xrotation Yrotation
            End Site
            {
              OFFSET 0.000000 0.000000 0.000000
            }
          }
          JOINT Leftcollar
          {
            OFFSET 4.254290 -1.548100 1.990670
            CHANNELS 3 Zrotation Xrotation Yrotation
            JOINT LeftArm
            {
              OFFSET 16.825900 0.000000 0.000000
              CHANNELS 3 Zrotation Xrotation Yrotation
              JOINT LeftForeArm
              {
                OFFSET 0.000000 -28.058000 0.000000
                CHANNELS 3 Zrotation Xrotation Yrotation
                JOINT LeftHand
                {
                  OFFSET 0.000000 -24.725300 0.000000
                  CHANNELS 3 Zrotation Xrotation Yrotation
                  End Site
                  {
                    OFFSET -2.986150 -9.946190 -0.575321
                  }
                }
              }
            }
          }
          JOINT RightCollar
          {
            OFFSET -4.254280 -1.548090 1.990690
            CHANNELS 3 Zrotation Xrotation Yrotation
            JOINT RightArm
            {
              OFFSET -16.825900 0.000000 0.000000
              CHANNELS 3 Zrotation Xrotation Yrotation
              JOINT RightForeArm
              {
                OFFSET 0.000000 -28.058000 0.000000
                CHANNELS 3 Zrotation Xrotation Yrotation
                JOINT RightHand
                {
                  OFFSET 0.000000 -24.725300 0.000000
                  CHANNELS 3 Zrotation Xrotation Yrotation
                  End Site
                  {
                    OFFSET 2.986150 -9.946180 -0.575319
                  }
                }
              }
            }
          }
        }
      }
    }
  }
  JOINT LeftUpLeg
  {
    OFFSET 9.942750 0.000000 0.000000
    CHANNELS 3 Zrotation Xrotation Yrotation
    JOINT LeftLeg
    {
      OFFSET 0.000000 -45.973000 0.000000
      CHANNELS 3 Zrotation Xrotation Yrotation
      JOINT LeftFoot
      {
        OFFSET 0.000000 -43.163400 0.000000
        CHANNELS 3 Zrotation Xrotation Yrotation
        JOINT LeftToe
        {
          OFFSET 0.000000 0.000000 15.628600
          CHANNELS 3 Zrotation Xrotation Yrotation
          End Site
          {
            OFFSET 0.000000 0.000000 0.000000
          }
        }
      }
    }
  }
  JOINT RightUpLeg
  {
    OFFSET -9.942750 0.000000 0.000000
    CHANNELS 3 Zrotation Xrotation Yrotation
    JOINT RightLeg
    {
      OFFSET 0.000000 -45.973000 0.000000
      CHANNELS 3 Zrotation Xrotation Yrotation
      JOINT RightFoot
      {
        OFFSET 0.000000 -43.163400 0.000000
        CHANNELS 3 Zrotation Xrotation Yrotation
        JOINT RightToe
        {
          OFFSET 0.000000 0.000000 15.628600
          CHANNELS 3 Zrotation Xrotation Yrotation
          End Site
          {
            OFFSET 0.000000 0.000000 0.000000
          }
        }
      }
    }
  }
}
MOTION
Frames: 15
Frame Time: 0.033333
54.184500 87.916100 90.578700 8.864850 343.571700 208.479000 358.382480 342.535500 360.000000 0.000000 0.000000 5.568680 0.000000 360.000000 360.000000 0.000000 360.000000 0.000000 0.000000 360.000000 0.000000 0.000000 360.000000 0.000000 18.563000 13.910500 353.243300 360.000000 347.734300 360.000000 360.000000 0.000000 90.000000 0.000000 360.000000 0.000000 333.812600 339.755800 19.059400 0.000000 321.026900 0.000000 0.000000 0.000000 270.000000 2.683280 312.666600 8.277710 0.000000 29.150100 0.000000 0.000000 1.988250 356.811620 0.000000 0.000000 0.000000 359.879686 357.163860 349.454200 0.000000 29.393400 0.000000 360.000000 354.954210 7.149680 0.000000 360.000000 360.000000 
51.094400 88.349800 87.018000 7.255850 342.687300 208.044000 356.812570 341.562300 0.000000 0.000000 360.000000 5.156230 360.000000 0.000000 360.000000 360.000000 0.000000 0.000000 360.000000 0.000000 360.000000 360.000000 0.000000 360.000000 17.920600 11.911400 352.745170 0.000000 346.903800 360.000000 0.000000 0.000000 90.000000 360.000000 0.000000 360.000000 335.054200 342.522600 21.420000 0.000000 322.036900 0.000000 360.000000 0.000000 270.000000 359.938303 314.748300 7.855900 0.000000 31.287400 0.000000 0.000000 358.856400 356.689580 0.000000 0.000000 0.000000 356.611170 354.030610 349.107500 360.000000 39.585400 0.000000 0.000000 1.411870 6.063590 0.000000 360.000000 360.000000 
48.523600 88.820000 83.818100 6.341450 342.776300 207.640000 356.372080 341.780500 0.000000 360.000000 0.000000 4.351280 360.000000 360.000000 0.000000 0.000000 360.000000 360.000000 360.000000 360.000000 0.000000 360.000000 360.000000 0.000000 17.687700 9.619000 344.258400 360.000000 344.803200 360.000000 0.000000 0.000000 90.000000 360.000000 360.000000 0.000000 336.330600 344.715600 24.416000 0.000000 323.039600 360.000000 360.000000 360.000000 270.000000 358.734100 317.646400 8.328080 360.000000 32.079100 360.000000 0.000000 356.130420 356.199660 360.000000 360.000000 0.000000 354.781140 349.480500 349.587700 0.000000 50.908100 360.000000 0.000000 9.526810 2.875310 360.000000 0.000000 360.000000 
46.247200 89.391100 80.813000 5.363340 342.908100 206.879000 355.919650 342.357100 0.000000 0.000000 360.000000 3.240620 360.000000 0.000000 360.000000 360.000000 0.000000 360.000000 0.000000 360.000000 360.000000 0.000000 360.000000 360.000000 17.841300 6.548840 343.707200 0.000000 342.125400 0.000000 0.000000 0.000000 90.000000 0.000000 360.000000 360.000000 337.804700 346.772600 27.359900 0.000000 324.355200 0.000000 360.000000 360.000000 270.000000 357.900210 321.160200 9.237450 360.000000 31.334600 360.000000 0.000000 354.157170 355.619190 360.000000 360.000000 0.000000 353.739050 344.406600 350.800320 360.000000 60.406600 0.000000 0.000000 15.238900 358.023050 360.000000 0.000000 0.000000 
44.103400 90.050700 77.871400 4.778540 343.144500 206.219000 355.963030 342.608300 0.000000 360.000000 360.000000 1.905460 0.000000 360.000000 360.000000 360.000000 360.000000 0.000000 360.000000 360.000000 0.000000 360.000000 360.000000 0.000000 18.400200 2.926450 342.652300 360.000000 340.095200 0.000000 0.000000 0.000000 90.000000 360.000000 360.000000 0.000000 339.275600 348.868100 30.698300 360.000000 326.344700 360.000000 0.000000 360.000000 270.000000 357.374090 324.981000 10.189900 0.000000 29.549700 0.000000 360.000000 352.933630 354.945710 0.000000 0.000000 0.000000 353.417780 339.656100 351.878860 360.000000 66.606400 0.000000 0.000000 12.334900 355.005850 360.000000 360.000000 360.000000 
42.168800 90.683900 75.056900 4.727800 343.593000 206.204000 356.400640 343.143200 0.000000 0.000000 0.000000 359.808034 0.000000 360.000000 360.000000 0.000000 360.000000 360.000000 0.000000 360.000000 360.000000 0.000000 360.000000 360.000000 19.635100 359.476317 341.808100 360.000000 337.182300 0.000000 0.000000 0.000000 90.000000 0.000000 360.000000 360.000000 340.673000 351.216680 32.707300 360.000000 328.037800 360.000000 0.000000 360.000000 270.000000 357.135510 328.719600 10.754600 360.000000 27.406000 360.000000 0.000000 352.088930 354.176740 0.000000 0.000000 360.000000 353.743380 335.045000 352.748300 360.000000 69.780300 0.000000 360.000000 8.540750 355.109020 360.000000 360.000000 0.000000 
40.300500 91.282900 72.279500 4.710240 344.027600 206.215000 356.976340 343.628700 0.000000 360.000000 360.000000 357.818660 360.000000 360.000000 0.000000 0.000000 360.000000 0.000000 360.000000 360.000000 0.000000 360.000000 360.000000 0.000000 21.090300 355.715100 341.752900 360.000000 334.885000 0.000000 360.000000 0.000000 90.000000 360.000000 360.000000 0.000000 341.567900 354.030200 34.215000 360.000000 329.501400 360.000000 360.000000 0.000000 270.000000 356.984970 332.447400 11.698500 360.000000 24.915300 0.000000 360.000000 351.522650 353.188580 360.000000 360.000000 360.000000 353.766080 330.649500 352.792840 360.000000 70.315400 0.000000 360.000000 6.413740 356.078960 0.000000 0.000000 0.000000 
38.548600 91.746000 69.603100 5.014470 344.033900 205.849000 357.723030 343.615000 0.000000 360.000000 360.000000 356.491970 0.000000 0.000000 0.000000 0.000000 0.000000 0.000000 0.000000 0.000000 0.000000 0.000000 0.000000 0.000000 22.681100 352.058400 343.059600 360.000000 332.566000 360.000000 0.000000 0.000000 90.000000 0.000000 0.000000 0.000000 342.092100 357.029890 35.106100 360.000000 331.174100 360.000000 0.000000 0.000000 270.000000 357.043040 335.671700 12.779900 360.000000 22.320700 0.000000 0.000000 351.134740 352.416650 0.000000 0.000000 0.000000 354.862230 325.761900 354.114980 360.000000 68.587900 0.000000 0.000000 3.957700 356.025950 360.000000 360.000000 0.000000 
36.956100 92.008600 66.939800 5.373320 343.866100 205.343000 358.510540 343.613100 0.000000 360.000000 0.000000 355.512160 0.000000 360.000000 360.000000 0.000000 360.000000 360.000000 360.000000 360.000000 360.000000 360.000000 360.000000 360.000000 24.422900 348.645600 345.415600 0.000000 330.335200 0.000000 360.000000 0.000000 90.000000 360.000000 360.000000 360.000000 342.623400 359.828521 34.906700 0.000000 333.197900 0.000000 0.000000 360.000000 270.000000 357.227880 338.281000 13.959000 360.000000 20.505200 360.000000 360.000000 350.461760 351.704940 360.000000 0.000000 360.000000 356.371280 321.217200 355.777340 360.000000 64.338100 360.000000 0.000000 2.099280 355.362240 0.000000 360.000000 360.000000 
35.436200 92.100300 64.328700 5.611510 343.509300 205.056000 359.003469 343.628500 360.000000 0.000000 360.000000 354.508120 0.000000 0.000000 0.000000 360.000000 0.000000 360.000000 360.000000 0.000000 360.000000 360.000000 0.000000 360.000000 26.263500 345.349900 348.364300 360.000000 328.458000 0.000000 0.000000 0.000000 90.000000 360.000000 0.000000 360.000000 342.888900 2.488790 34.128900 360.000000 334.865900 360.000000 0.000000 360.000000 270.000000 356.964310 340.957500 14.462000 360.000000 18.108800 360.000000 0.000000 350.228770 351.327650 360.000000 360.000000 0.000000 357.326960 317.540200 356.460310 360.000000 57.513200 360.000000 360.000000 0.992036 355.207930 360.000000 360.000000 0.000000 
33.962300 91.949800 61.622600 5.915560 342.806100 204.717000 359.362847 343.295700 0.000000 0.000000 0.000000 353.873150 0.000000 0.000000 0.000000 0.000000 0.000000 0.000000 360.000000 0.000000 360.000000 360.000000 0.000000 360.000000 28.113100 342.566200 351.062300 360.000000 326.409100 0.000000 0.000000 0.000000 90.000000 360.000000 0.000000 360.000000 342.975900 5.079870 33.003200 0.000000 336.752400 0.000000 360.000000 360.000000 270.000000 356.629230 343.089200 14.610400 360.000000 16.254100 0.000000 0.000000 349.340400 351.724410 360.000000 360.000000 0.000000 358.216230 314.528900 356.645950 0.000000 48.438800 360.000000 359.995683 0.956730 356.038840 360.000000 360.000000 0.000000 
32.546100 91.589700 58.750400 6.134860 342.271800 204.474000 359.587249 343.086500 0.000000 0.000000 360.000000 353.153360 0.000000 0.000000 0.000000 0.000000 0.000000 0.000000 0.000000 0.000000 0.000000 0.000000 0.000000 0.000000 30.030500 340.353700 353.548200 0.000000 324.306100 0.000000 0.000000 0.000000 90.000000 0.000000 0.000000 0.000000 343.040600 7.389420 31.866100 0.000000 338.769700 0.000000 0.000000 0.000000 270.000000 356.374900 345.362600 15.010300 360.000000 14.678300 0.000000 360.000000 348.465900 351.749690 0.000000 0.000000 0.000000 359.070038 313.321400 356.129170 0.000000 36.449700 360.000000 360.000000 2.310020 358.491080 360.000000 360.000000 360.000000 
31.136200 91.078600 55.766900 6.465980 341.315600 204.416000 359.724431 342.361600 0.000000 360.000000 0.000000 352.639160 0.000000 0.000000 0.000000 0.000000 0.000000 0.000000 0.000000 0.000000 0.000000 0.000000 0.000000 0.000000 31.530700 338.640800 355.904210 0.000000 322.259600 0.000000 360.000000 0.000000 90.000000 0.000000 0.000000 0.000000 342.943000 9.696780 30.208700 360.000000 340.340600 360.000000 360.000000 0.000000 270.000000 355.976590 347.207200 14.779500 360.000000 13.179800 0.000000 0.000000 347.660400 352.402900 360.000000 360.000000 0.000000 359.823497 313.010500 354.267180 0.000000 22.309400 360.000000 0.000000 4.674290 3.243880 360.000000 0.000000 360.000000 
29.795400 90.471200 52.479200 6.605830 340.689800 204.472000 359.635872 341.823100 0.000000 0.000000 360.000000 352.119090 0.000000 360.000000 360.000000 0.000000 360.000000 360.000000 0.000000 360.000000 360.000000 0.000000 360.000000 360.000000 32.888200 337.590800 357.562260 360.000000 320.422600 0.000000 0.000000 0.000000 90.000000 0.000000 360.000000 360.000000 343.154900 11.785500 28.284600 360.000000 342.302100 360.000000 360.000000 360.000000 270.000000 355.854040 349.291800 15.281700 360.000000 12.417800 0.000000 360.000000 347.126700 351.845270 360.000000 0.000000 360.000000 1.183410 313.908200 352.764580 360.000000 8.701640 360.000000 0.000000 4.859250 9.673060 0.000000 0.000000 0.000000 
28.540300 89.801500 48.886800 6.810210 340.818000 205.132000 359.582250 341.900100 0.000000 360.000000 360.000000 351.504300 360.000000 0.000000 360.000000 360.000000 0.000000 360.000000 360.000000 0.000000 360.000000 360.000000 0.000000 360.000000 33.867200 336.846000 358.453560 0.000000 318.833300 0.000000 360.000000 360.000000 90.000000 360.000000 0.000000 360.000000 343.589400 13.916800 25.238900 0.000000 343.630800 0.000000 360.000000 0.000000 270.000000 356.469700 351.125560 15.541500 0.000000 13.868900 360.000000 0.000000 345.779000 351.186890 0.000000 360.000000 0.000000 2.569470 315.681500 352.951400 360.000000 359.500390 360.000000 0.000000 3.493440 13.108400 0.000000 0.000000 0.000000 
